<?xml version="1.0" standalone="no"?>
<!DOCTYPE svg PUBLIC "-//W3C//DTD SVG 20010904//EN"
 "http://www.w3.org/TR/2001/REC-SVG-20010904/DTD/svg10.dtd">
<svg version="1.0" xmlns="http://www.w3.org/2000/svg"
 width="1952.000000pt" height="1952.000000pt" viewBox="0 0 1952.000000 1952.000000"
 preserveAspectRatio="xMidYMid meet">
<metadata>
Created by potrace 1.11, written by Peter Selinger 2001-2013
</metadata>
<g transform="translate(0.000000,1952.000000) scale(0.100000,-0.100000)"
fill="#000000" stroke="none">
<path d="M10023 14730 c-23 -11 -70 -22 -104 -25 -36 -3 -72 -13 -88 -24 -14
-10 -48 -26 -76 -36 -56 -20 -85 -41 -85 -61 0 -14 -28 -33 -45 -31 -5 1 -25
6 -43 13 -46 15 -74 8 -121 -32 -21 -19 -42 -34 -44 -34 -3 0 -18 -5 -34 -12
-15 -6 -37 -12 -48 -13 -74 -7 -145 -50 -181 -111 -54 -92 -30 -182 77 -290
53 -53 61 -67 65 -105 3 -41 8 -71 19 -128 2 -12 17 -46 33 -75 26 -46 33 -79
18 -93 -3 -3 -26 9 -53 27 -45 31 -81 39 -125 28 -18 -4 -73 -58 -60 -58 4 0
0 -6 -9 -13 -9 -7 -19 -22 -23 -35 -4 -12 -12 -22 -17 -22 -6 0 -7 -4 -4 -10
13 -21 -65 -24 -86 -3 -26 26 3 127 46 163 15 13 46 63 52 85 19 74 19 124 0
169 -33 74 -115 120 -214 119 -34 -1 -68 -5 -75 -9 -19 -12 -59 -5 -95 18 -42
25 -84 26 -127 3 -43 -23 -61 -11 -69 45 -7 53 -49 117 -106 161 -51 40 -106
71 -113 64 -5 -6 -87 -18 -105 -17 -78 7 -106 2 -137 -22 -18 -13 -39 -39 -46
-55 -7 -17 -19 -32 -26 -32 -8 -1 -31 -2 -51 -3 -21 -1 -48 -5 -60 -10 -27 -9
-74 -67 -100 -121 -10 -22 -21 -42 -24 -45 -3 -3 -13 -18 -22 -35 -8 -16 -27
-43 -41 -60 -60 -69 -88 -178 -62 -240 24 -57 118 -134 167 -138 40 -2 52 -22
39 -62 -12 -36 -42 -71 -104 -119 -40 -31 -81 -102 -89 -153 -8 -52 32 -124
90 -161 27 -17 64 -35 81 -38 37 -8 54 -24 49 -50 -7 -37 -20 -56 -43 -64 -38
-15 -84 4 -141 59 -8 8 -27 16 -42 18 -14 2 -35 5 -46 7 -19 3 -102 -71 -91
-81 3 -3 -6 -21 -20 -39 -30 -39 -45 -36 -105 24 -31 31 -42 36 -88 37 -29 1
-56 6 -59 12 -26 39 -71 87 -95 100 -40 20 -96 19 -149 -5 -50 -22 -67 -18
-106 27 -21 23 -31 26 -85 26 -49 0 -76 -7 -127 -31 -36 -17 -74 -40 -86 -51
-29 -29 -57 -42 -101 -48 -82 -12 -99 -19 -125 -48 -16 -17 -28 -35 -28 -40 0
-6 -3 -8 -6 -5 -3 3 -27 -16 -54 -43 -50 -50 -79 -114 -85 -187 -2 -21 -9 -59
-15 -87 -19 -86 -19 -114 4 -149 12 -17 28 -47 37 -66 35 -76 41 -86 65 -113
14 -16 32 -30 42 -32 9 -2 17 -4 17 -5 0 -1 30 -4 67 -6 43 -2 80 -11 102 -24
20 -11 52 -29 71 -40 19 -11 35 -17 35 -13 0 3 9 -2 19 -12 15 -13 19 -26 15
-54 -11 -93 -1 -142 43 -199 14 -18 26 -39 27 -45 1 -7 4 -16 8 -22 5 -9 4
-60 -1 -60 -2 0 -4 -8 -6 -18 -2 -11 -5 -21 -8 -23 -11 -11 -52 -13 -64 -3 -7
7 -13 8 -13 4 0 -3 -12 3 -26 14 -15 12 -35 21 -46 21 -37 0 -97 40 -129 87
-29 42 -32 54 -34 127 -1 70 -5 87 -30 126 -70 111 -145 137 -256 87 -55 -25
-110 -70 -121 -98 -3 -9 -40 -33 -82 -54 -41 -21 -73 -42 -70 -47 3 -4 0 -8
-5 -8 -6 0 -23 -19 -38 -42 -21 -34 -26 -56 -27 -105 -1 -58 -3 -64 -36 -92
-19 -17 -38 -30 -42 -31 -12 0 -35 -85 -32 -120 10 -117 -1 -190 -27 -175 -5
4 -9 2 -9 -3 0 -5 -11 -9 -24 -9 -30 0 -85 -34 -152 -93 -29 -25 -68 -56 -88
-70 -98 -67 -154 -126 -160 -169 -4 -20 -9 -54 -12 -76 -3 -22 -11 -47 -18
-55 -27 -32 -43 -94 -34 -130 4 -19 10 -44 13 -55 3 -11 7 -40 10 -65 10 -79
67 -232 100 -266 53 -56 90 -73 138 -63 55 12 157 52 157 61 0 11 76 48 84 41
11 -11 146 -15 159 -5 22 17 105 32 144 26 21 -3 43 -7 48 -8 6 -1 24 -7 41
-14 32 -14 38 -22 72 -102 11 -25 31 -57 45 -72 13 -15 22 -29 19 -32 -3 -3 0
-6 6 -6 15 0 9 -84 -8 -104 -7 -9 -34 -22 -59 -28 -33 -8 -59 -25 -94 -60 -26
-27 -45 -53 -42 -58 3 -5 2 -11 -3 -14 -9 -6 -8 -44 4 -71 10 -24 50 -66 61
-64 4 1 10 1 13 -1 3 -1 16 -3 30 -6 52 -9 79 -26 85 -53 6 -28 -8 -80 -22
-82 -5 0 -15 -2 -23 -4 -112 -23 -129 -22 -209 5 -33 11 -68 20 -78 20 -10 0
-28 16 -40 35 -13 19 -33 51 -45 70 -32 49 -85 74 -168 79 -86 6 -146 -35
-190 -129 -16 -33 -44 -77 -62 -96 -56 -60 -82 -195 -63 -332 4 -28 3 -53 -3
-60 -6 -6 -13 -31 -17 -55 -5 -36 -2 -51 20 -88 14 -24 38 -67 52 -96 43 -87
60 -97 154 -97 47 0 86 -5 95 -12 18 -15 18 -48 -1 -55 -8 -4 -15 -12 -15 -20
0 -8 -5 -14 -11 -14 -24 0 -52 -94 -55 -184 -2 -49 -11 -120 -20 -157 -9 -38
-13 -76 -10 -86 4 -10 7 -20 7 -23 0 -3 14 -20 32 -38 27 -28 31 -39 29 -75
-6 -88 -5 -106 12 -132 10 -15 32 -35 51 -46 18 -11 38 -32 43 -47 13 -33 24
-160 26 -306 2 -108 2 -108 33 -135 17 -14 46 -35 64 -46 29 -17 33 -26 34
-61 1 -42 41 -118 57 -108 4 3 8 1 8 -5 0 -6 16 -13 35 -17 19 -3 38 -10 41
-15 2 -5 20 -16 39 -25 19 -9 35 -21 35 -28 1 -12 101 -80 140 -94 43 -15 161
-3 168 18 2 6 7 8 12 5 5 -3 24 25 43 62 19 38 39 69 45 70 7 2 23 -19 37 -47
14 -27 38 -59 55 -72 16 -12 32 -30 36 -40 7 -22 -4 -58 -17 -58 -5 0 -17 -8
-27 -18 -43 -43 -55 -120 -31 -202 7 -25 13 -47 14 -50 4 -15 16 -90 20 -123
7 -57 41 -99 124 -155 105 -69 112 -72 186 -76 62 -3 83 -12 120 -51 13 -14
112 -61 150 -71 85 -23 148 -4 184 55 12 20 22 39 22 44 -1 4 5 20 14 36 21
43 21 108 -3 169 -28 72 -19 94 41 108 4 1 10 3 15 4 4 1 10 2 15 1 4 0 7 4 7
11 0 6 3 9 6 5 3 -3 24 6 46 20 34 21 45 23 64 14 13 -6 24 -19 25 -28 0 -10
3 -27 5 -38 3 -11 7 -41 9 -67 3 -35 0 -48 -12 -52 -9 -4 -13 -9 -10 -12 8 -8
-26 -40 -63 -59 -48 -25 -88 -73 -95 -113 -14 -85 12 -158 80 -228 56 -58 73
-83 78 -109 1 -11 6 -26 10 -32 5 -7 5 -13 2 -13 -7 0 12 -24 38 -48 24 -23
87 -40 117 -32 33 9 70 -5 70 -27 0 -10 -17 -34 -36 -53 -47 -46 -55 -62 -59
-120 -5 -64 34 -144 104 -217 28 -28 67 -77 87 -109 58 -90 86 -111 140 -107
42 4 47 2 89 -42 48 -51 81 -61 139 -43 34 10 78 16 173 23 35 2 76 11 93 20
16 8 30 13 30 9 0 -17 34 24 54 65 17 36 23 67 25 146 4 118 5 138 16 188 17
85 90 67 203 -51 39 -41 72 -78 72 -81 -1 -10 -30 -45 -30 -36 0 24 -90 -98
-96 -130 -10 -54 -10 -77 3 -114 8 -24 20 -50 26 -57 46 -54 76 -82 81 -77 3
4 6 1 6 -5 0 -7 5 -12 11 -12 9 0 84 -54 149 -109 72 -60 92 -71 130 -71 19 1
49 7 65 14 31 13 85 4 85 -16 0 -5 5 -6 10 -3 6 3 13 0 16 -8 7 -18 42 -23 84
-12 14 4 31 7 38 7 6 1 12 5 12 9 0 9 22 17 75 25 22 3 51 11 65 17 25 12 66
79 74 120 2 12 12 42 21 67 9 25 16 70 15 100 -3 193 -3 333 1 385 3 42 -1 74
-13 108 -20 53 -20 57 -6 74 16 19 22 16 43 -19 28 -49 46 -65 94 -87 44 -19
44 -19 80 1 20 11 48 31 63 45 l26 25 21 -21 21 -21 -27 -51 c-16 -29 -34 -62
-41 -75 -13 -23 -17 -44 -27 -137 -6 -59 -12 -70 -64 -127 -47 -52 -80 -113
-83 -155 -1 -17 9 -52 23 -79 28 -58 79 -95 175 -126 35 -12 74 -30 88 -41 13
-11 44 -28 67 -38 43 -19 43 -19 103 3 60 22 91 23 111 5 5 -5 17 -9 27 -9 10
0 18 -4 18 -9 0 -8 44 -8 79 1 8 2 30 19 50 39 41 41 60 50 126 64 67 14 165
86 183 136 31 81 -12 192 -98 257 -25 18 -53 40 -63 48 -9 8 -21 14 -26 14 -4
0 -21 18 -36 40 -27 39 -27 42 -14 83 18 56 19 132 3 186 -7 25 -11 48 -9 51
3 4 7 32 11 61 4 30 8 61 10 69 1 8 3 20 3 27 2 26 31 40 87 42 31 1 61 4 65
7 5 3 18 7 29 10 11 2 29 6 39 8 11 3 29 9 40 15 26 14 58 14 67 0 4 -6 8 -36
10 -67 5 -77 52 -143 106 -147 18 -1 38 -55 20 -55 -4 0 -26 -17 -49 -38 -34
-31 -46 -50 -58 -98 -19 -75 -14 -122 18 -176 23 -39 67 -81 81 -79 4 1 19 -5
34 -13 15 -7 50 -14 79 -13 39 0 65 -8 105 -30 29 -16 64 -28 78 -26 117 12
146 18 174 36 32 21 73 14 97 -17 55 -69 82 -87 129 -83 25 1 50 5 55 8 6 4
24 5 40 3 17 -2 44 -5 60 -7 41 -4 94 29 111 70 15 36 43 48 92 40 38 -6 103
33 120 72 17 41 63 116 73 119 5 2 7 8 3 13 -3 5 0 9 5 9 6 0 11 5 11 11 0 23
130 169 151 169 5 0 8 3 7 8 -5 25 52 114 105 165 34 31 57 57 52 57 -5 0 2
11 15 25 13 14 20 25 17 25 -4 0 -1 10 6 23 18 27 14 116 -5 128 -7 5 -10 9
-5 9 13 0 -55 70 -90 91 -18 12 -48 23 -66 26 -50 8 -133 39 -167 63 -18 13
-33 36 -39 58 -12 42 -11 83 1 76 4 -3 8 0 8 6 0 14 26 41 32 35 8 -8 59 55
53 65 -3 6 -1 10 5 10 8 0 8 6 0 20 -6 11 -9 24 -6 28 11 18 -14 34 -52 35
-30 1 -50 -7 -79 -29 -71 -55 -173 -34 -157 32 4 14 7 42 8 62 1 20 5 46 9 57
9 28 58 55 97 55 48 0 110 41 98 65 -4 6 43 39 58 41 31 5 54 16 49 25 -4 5
-1 9 6 9 7 0 9 3 6 6 -3 4 12 27 34 53 48 54 79 61 109 24 11 -14 20 -22 20
-17 1 5 7 -2 14 -16 8 -14 12 -28 10 -31 -2 -3 5 -14 16 -24 11 -10 20 -13 20
-7 0 10 30 9 48 -2 5 -3 21 -7 37 -10 43 -8 64 -35 70 -91 3 -28 9 -59 12 -70
3 -11 5 -42 3 -70 -1 -27 -3 -66 -3 -85 0 -40 48 -149 69 -157 8 -3 11 -9 8
-14 -3 -5 4 -9 15 -9 12 0 21 -4 21 -9 0 -6 32 -9 73 -7 56 2 81 -2 112 -18
22 -11 42 -21 45 -21 3 -1 12 -5 20 -9 22 -9 90 -14 90 -6 0 8 35 5 90 -6 50
-10 80 -12 80 -5 0 10 101 58 139 66 22 5 50 24 78 53 23 26 43 43 43 39 0
-13 62 48 92 91 16 23 26 42 23 42 -3 0 0 10 7 23 7 12 13 58 14 102 0 44 6
91 11 105 6 14 10 28 9 31 0 3 4 12 10 20 10 13 17 35 30 94 3 11 5 43 6 72 1
42 -3 58 -26 87 -15 20 -24 36 -21 36 3 0 0 6 -7 14 -7 8 -16 12 -20 9 -5 -2
-8 1 -8 6 0 6 -4 11 -10 11 -5 0 -38 14 -72 30 -34 17 -65 30 -70 30 -14 0
-183 84 -186 92 -2 4 -10 8 -18 8 -23 0 -134 115 -134 138 0 23 9 31 41 37 57
11 101 71 92 124 -12 75 -7 95 37 141 22 23 40 38 40 34 0 -9 41 37 56 62 6
10 10 45 8 77 -2 48 1 59 17 68 12 6 19 6 19 0 0 -8 23 -20 53 -27 4 -1 8 -2
10 -4 4 -3 42 -10 77 -13 43 -4 68 -42 65 -95 -6 -104 100 -225 195 -224 57 1
88 24 222 170 20 22 39 38 42 34 3 -3 6 0 6 6 0 7 9 12 20 12 11 0 20 5 20 12
0 6 3 8 7 4 11 -11 94 85 119 140 15 31 26 77 29 122 5 67 38 182 53 182 4 0
16 19 26 43 56 126 70 146 110 172 56 35 71 72 69 169 -1 43 2 86 7 96 18 34
34 150 20 150 -6 0 -15 19 -24 50 -32 116 -55 164 -110 223 -25 26 -41 47 -38
47 4 0 -11 9 -32 21 -29 15 -50 19 -80 15 -63 -7 -67 -9 -130 -45 -56 -31 -64
-33 -153 -32 -77 1 -107 -3 -169 -25 -86 -29 -214 -38 -236 -16 -18 18 -18
214 0 220 7 2 10 7 7 12 -6 9 8 14 65 25 19 4 40 11 46 17 7 5 16 8 20 7 28
-6 130 73 119 91 -3 4 2 11 11 14 8 3 13 10 9 16 -9 14 46 67 78 76 36 8 58
42 63 96 5 51 11 92 19 133 3 17 7 50 9 74 6 63 26 78 116 86 151 13 240 31
240 47 0 5 5 6 10 3 6 -3 10 -2 10 4 0 5 14 12 30 16 17 4 30 10 30 14 0 4 11
14 25 21 13 7 22 17 19 22 -3 4 0 8 5 8 6 0 10 3 10 8 -1 4 0 9 1 12 4 10 10
46 14 85 2 22 7 51 10 65 14 60 13 100 -3 110 -9 5 -12 10 -7 10 5 0 -3 10
-18 23 -31 27 -48 79 -37 110 8 21 8 33 0 67 -5 20 -16 34 -83 106 -57 62 -59
64 -61 127 -1 34 -5 72 -9 84 -4 11 -8 34 -11 49 -11 85 -18 113 -36 149 -11
22 -25 47 -32 55 -20 25 -100 85 -130 98 -15 7 -65 48 -110 91 -45 44 -92 88
-105 98 -25 20 -39 72 -23 83 14 8 15 55 2 120 -6 30 -13 66 -15 80 -7 48 -11
55 -57 100 -28 27 -54 64 -64 93 -10 26 -22 47 -27 47 -5 0 -6 5 -3 10 3 6 -1
10 -10 10 -9 0 -14 4 -11 8 3 5 -8 18 -24 30 -38 28 -151 252 -155 307 -4 60
-16 98 -37 116 -10 9 -18 21 -18 28 0 6 -20 16 -45 22 -46 12 -95 56 -95 85 0
34 -66 108 -99 110 -88 7 -106 19 -136 82 -14 31 -35 75 -47 97 -60 114 -71
139 -75 173 -3 20 -5 44 -7 52 -4 33 -60 127 -95 158 -20 18 -54 43 -76 54
-22 11 -51 29 -65 40 -16 11 -49 21 -80 24 -29 2 -71 12 -94 22 -44 20 -83 19
-131 -4 -17 -8 -51 -16 -74 -19 -86 -9 -146 -63 -156 -140 -11 -87 -36 -134
-73 -136 -9 0 -27 -2 -39 -3 -13 -2 -23 0 -23 4 0 3 -22 11 -48 16 -52 10 -94
4 -152 -24 -67 -31 -128 -35 -154 -10 -29 30 -122 69 -172 72 -57 5 -81 -6
-144 -65 -55 -50 -84 -62 -130 -54 -64 11 -69 14 -66 43 2 15 5 27 6 27 5 0
12 46 13 86 0 37 -5 54 -28 80 -22 28 -100 75 -137 85 -5 1 -10 3 -13 4 -3 1
-9 3 -13 4 -5 0 -25 10 -45 21 -38 20 -67 65 -62 94 2 9 4 21 4 28 2 22 55 69
116 103 68 38 105 69 105 88 0 7 4 11 9 8 10 -7 51 84 55 122 1 15 -2 33 -7
40 -5 6 -6 12 -3 12 4 0 1 7 -6 15 -31 34 -38 45 -38 56 0 7 -2 10 -5 7 -3 -3
-25 12 -48 33 -23 22 -47 39 -52 39 -6 0 -28 20 -50 45 -110 124 -127 136
-180 124 -61 -14 -84 -9 -119 22 -54 47 -85 52 -157 23 -33 -14 -84 -27 -112
-30 -29 -2 -61 -8 -72 -11 -11 -4 -24 -7 -30 -8 -27 -2 -92 -30 -108 -47 -13
-13 -29 -18 -50 -16 -26 2 -38 13 -64 53 -18 28 -39 57 -45 65 -7 8 -11 17 -9
20 5 6 -82 50 -87 45 -2 -2 -24 5 -49 16 -56 24 -77 23 -130 -1z"/>
</g>
</svg>
